<?xml version="1.0" encoding="utf-8"?>
<!-- Generator: Adobe Illustrator 17.1.0, SVG Export Plug-In . SVG Version: 6.00 Build 0)  -->
<!DOCTYPE svg PUBLIC "-//W3C//DTD SVG 1.1//EN" "http://www.w3.org/Graphics/SVG/1.1/DTD/svg11.dtd">
<svg version="1.1" id="Capa_1" xmlns="http://www.w3.org/2000/svg" xmlns:xlink="http://www.w3.org/1999/xlink" x="0px" y="0px"
	 viewBox="4313.9 3574.8 48.1 47.9" enable-background="new 4313.9 3574.8 48.1 47.9" xml:space="preserve">
<g>
	<g>
		<polygon fill="#FFFFFF" points="4344.1,3587 4331.7,3587 4333.2,3577.8 4342.5,3577.8 		"/>
		<polygon fill="#FFFFFF" points="4331.7,3610.3 4344.1,3610.3 4342.5,3619.4 4333.2,3619.4 		"/>
	</g>
	<path fill="#FFFFFF" d="M4337.9,3583c-8.6,0-15.6,7-15.6,15.6s7,15.6,15.6,15.6s15.6-7,15.6-15.6S4346.5,3583,4337.9,3583z
		 M4337.9,3607.1c-4.7,0-8.5-3.8-8.5-8.5s3.8-8.5,8.5-8.5s8.5,3.8,8.5,8.5S4342.5,3607.1,4337.9,3607.1z"/>
	<g>
		<polygon fill="#FFFFFF" points="4344.1,3587 4331.7,3587 4333.2,3577.8 4342.5,3577.8 		"/>
		<polygon fill="#FFFFFF" points="4331.7,3610.3 4344.1,3610.3 4342.5,3619.4 4333.2,3619.4 		"/>
	</g>
	<g>
		<polygon fill="#FFFFFF" points="4330.9,3587.5 4324.7,3598.2 4317.5,3592.3 4322.2,3584.2 		"/>
		<polygon fill="#FFFFFF" points="4344.8,3609.8 4351,3599.1 4358.2,3605 4353.6,3613.1 		"/>
	</g>
	<g>
		<polygon fill="#FFFFFF" points="4324.7,3599.1 4330.9,3609.8 4322.2,3613.1 4317.5,3605 		"/>
		<polygon fill="#FFFFFF" points="4351,3598.2 4344.8,3587.5 4353.6,3584.2 4358.2,3592.3 		"/>
	</g>
</g>
</svg>
