<?xml version="1.0" encoding="utf-8"?>
<!-- Generator: Adobe Illustrator 17.1.0, SVG Export Plug-In . SVG Version: 6.00 Build 0)  -->
<!DOCTYPE svg PUBLIC "-//W3C//DTD SVG 1.1//EN" "http://www.w3.org/Graphics/SVG/1.1/DTD/svg11.dtd">
<svg version="1.1" id="Capa_1" xmlns="http://www.w3.org/2000/svg" xmlns:xlink="http://www.w3.org/1999/xlink" x="0px" y="0px"
	 viewBox="3964 3383.6 742 406" enable-background="new 3964 3383.6 742 406" xml:space="preserve">
<g>
	<polygon fill="#C1C1C3" points="4672.6,3759.5 4020.8,3759.5 4016.8,3747 4672.6,3747 	"/>
	<rect x="4016.8" y="3415.7" fill="#FFFFFF" width="655.8" height="334"/>
	<circle fill="#5D5D5D" cx="4049.2" cy="3471.8" r="14.4"/>
	<path fill="#0C3251" d="M4053.9,3474.3c0,3.1-2.5,5.7-5.7,5.7h-51.6c-3.1,0-5.7-2.5-5.7-5.7v-6.8c0-3.1,2.5-5.7,5.7-5.7h51.6
		c3.1,0,5.7,2.5,5.7,5.7V3474.3z"/>
	<circle fill="#5D5D5D" cx="4049.2" cy="3554.6" r="14.4"/>
	<path fill="#0C3251" d="M4053.9,3557.1c0,3.1-2.5,5.7-5.7,5.7h-51.6c-3.1,0-5.7-2.5-5.7-5.7v-6.8c0-3.1,2.5-5.7,5.7-5.7h51.6
		c3.1,0,5.7,2.5,5.7,5.7V3557.1z"/>
</g>
</svg>
