<?xml version="1.0" encoding="utf-8"?>
<!-- Generator: Adobe Illustrator 17.1.0, SVG Export Plug-In . SVG Version: 6.00 Build 0)  -->
<!DOCTYPE svg PUBLIC "-//W3C//DTD SVG 1.1//EN" "http://www.w3.org/Graphics/SVG/1.1/DTD/svg11.dtd">
<svg version="1.1" id="Capa_1" xmlns="http://www.w3.org/2000/svg" xmlns:xlink="http://www.w3.org/1999/xlink" x="0px" y="0px"
	 viewBox="4292.4 3545.9 81.4 85.9" enable-background="new 4292.4 3545.9 81.4 85.9" xml:space="preserve">
<g>
	<g>
		<g>
			<path fill="#F48136" d="M4331.6,3557.5c13.7,0.1,23.3,14.7,17.9,27.6c-0.4,1-0.9,2-1.4,3c-4.9,8.7-9.8,17.5-14.7,26.2
				c-1.3,2.3-2.5,2.3-3.7,0c-5-8.7-10-17.5-15-26.3c-7.3-12.9,0.2-26.9,12.2-29.7C4328.4,3557.9,4330,3557.7,4331.6,3557.5z
				 M4331.2,3590.7c7.5,0.1,13.7-6,13.8-13.6c0.1-7.6-6.1-13.8-13.5-13.9c-7.4,0-13.5,6.1-13.6,13.5
				C4317.7,3584.3,4323.7,3590.6,4331.2,3590.7z"/>
		</g>
	</g>
	<path fill="#FFFFFF" d="M4331.2,3590.7c7.5,0.1,13.7-6,13.8-13.6c0.1-7.6-6.1-13.8-13.5-13.9c-7.4,0-13.5,6.1-13.6,13.5
		C4317.7,3584.3,4323.7,3590.6,4331.2,3590.7z"/>
	<g>
		<path fill="#F48136" d="M4333.4,3575h7v4.1h-7v7.9h-4.3v-7.9h-7v-4.1h7v-7.4h4.3V3575z"/>
	</g>
</g>
</svg>
