<svg width="174" height="43" viewBox="0 0 174 43" fill="none" xmlns="http://www.w3.org/2000/svg">
<g clip-path="url(#clip0_43_1314)">
<path d="M125.75 17.7782C125.732 19.1122 125.518 20.3794 125.11 21.113C124.701 21.8467 124.261 22.3014 123.791 22.4833C124.017 22.5379 124.383 22.835 124.884 23.3746C125.384 23.9082 125.665 24.7206 125.72 25.812V28.4435C125.72 29.5591 125.219 30.4625 124.219 31.1598C123.218 31.851 122.034 32.1966 120.661 32.1966H105.318V28.1221H120.374V26.9095C120.374 26.1152 120.221 25.5513 119.916 25.2178C119.611 24.8904 119.178 24.7146 118.616 24.7085H105.318V20.634H119.385C119.654 20.634 119.892 20.5431 120.093 20.3612C120.294 20.1853 120.398 19.9246 120.398 19.5972V17.5115H105.312V13.2187H122.272C123.358 13.2187 124.206 13.5582 124.811 14.2434C125.415 14.9225 125.726 15.8016 125.75 16.8688V17.7782Z" fill="#F58236"/>
<path d="M5.36446 28.116H20.4936V32.1905H3.53358C2.36793 32.1905 1.48911 31.8571 0.884922 31.184C0.29294 30.4989 0 29.6197 0 28.5405V17.2204C0 16.026 0.494336 15.0498 1.48911 14.2919C2.41675 13.5703 3.61292 13.2126 5.08983 13.2126H20.4875V17.5054H5.36446V28.116Z" fill="white"/>
<path d="M42.4945 28.116V32.1905H22.0315V13.2126H27.396V28.116H42.4945Z" fill="white"/>
<path d="M49.403 13.2126H44.0386V32.1905H49.403V13.2126Z" fill="white"/>
<path d="M73.479 13.2126C74.6019 13.2793 75.4807 13.6431 76.1093 14.304C76.683 14.9406 76.9698 15.7956 76.9698 16.8748V32.1905H71.6237V17.5054H66.6193V32.1905H61.2731V17.5054H56.3115V32.1905H50.947V13.2126H73.479Z" fill="white"/>
<path d="M83.9028 23.7808V32.1905H78.5261V17.2204C78.5261 16.026 79.0205 15.0498 80.0152 14.2919C80.9368 13.5703 82.139 13.2126 83.6159 13.2126H95.5288C96.609 13.2126 97.4573 13.5764 98.0737 14.304C98.7145 14.9588 99.0319 15.8137 99.0319 16.8748V32.1905H93.643V23.7808H83.9028ZM93.6369 17.56H83.9028V19.7488H93.6369V17.56Z" fill="white"/>
<path d="M163.375 30.608V24.9632H161.825H147.873V18.912H161.825H163.375V13.2672H161.825H142.198H142.192V30.608H142.198H161.825H163.375Z" fill="white"/>
<path d="M11.0158 39.5755V41.3581H10.4055V37.3928H11.3881C11.681 37.3928 11.8946 37.411 12.0289 37.4413C12.1693 37.4716 12.2852 37.5262 12.389 37.5989C12.5171 37.6899 12.6087 37.8172 12.6819 37.9688C12.7551 38.1264 12.7857 38.2962 12.7857 38.4842C12.7857 38.6721 12.749 38.848 12.6819 39.0056C12.6087 39.1632 12.511 39.2906 12.389 39.3815C12.2852 39.4543 12.1693 39.5028 12.0289 39.5331C11.8946 39.5634 11.6749 39.5816 11.3881 39.5816H11.2599H11.0158V39.5755ZM11.0585 39.048H11.2233C11.5834 39.048 11.8214 39.0117 11.9435 38.9328C12.0655 38.854 12.1204 38.7206 12.1204 38.5205C12.1204 38.3083 12.0533 38.1628 11.9251 38.0719C11.797 37.987 11.559 37.9385 11.2172 37.9385H11.0524V39.048H11.0585Z" fill="white"/>
<path d="M13.3838 41.3521V37.3867H14.0307V40.7761H15.4832V41.3521H13.3838Z" fill="white"/>
<path d="M18.6445 41.3521L18.1928 40.3334H16.6122L16.1484 41.3521H15.4648L17.3995 37.2291L19.328 41.3521H18.6445ZM16.8502 39.7999H17.9609L17.552 38.8965C17.5276 38.8358 17.5032 38.7691 17.4788 38.6964C17.4544 38.6236 17.43 38.5387 17.4056 38.4478C17.3873 38.5327 17.3628 38.6175 17.3384 38.6903C17.314 38.7631 17.2896 38.8358 17.2652 38.8965L16.8502 39.7999Z" fill="white"/>
<path d="M19.7063 41.3521V37.2291L22.2451 39.6544C22.3122 39.7211 22.3855 39.7938 22.4526 39.8726C22.5258 39.9515 22.5991 40.0363 22.6784 40.1334V37.3806H23.2765V41.5036L20.6889 39.0359C20.6217 38.9692 20.5546 38.8965 20.4875 38.8237C20.4203 38.7509 20.3593 38.6721 20.3044 38.5933V41.3521H19.7063Z" fill="white"/>
<path d="M24.1919 41.3521V37.3867H26.4195V37.9385H24.8388V38.9328H26.4195V39.4967H24.8388V40.7761H26.4195V41.3521H24.1919Z" fill="white"/>
<path d="M29.8005 41.3521L29.3489 40.3334H27.7682L27.3044 41.3521H26.6208L28.5555 37.2291L30.484 41.3521H29.8005ZM28.0062 39.7999H29.1169L28.708 38.8965C28.6836 38.8358 28.6592 38.7691 28.6348 38.6964C28.6104 38.6236 28.586 38.5387 28.5616 38.4478C28.5433 38.5327 28.5189 38.6175 28.4944 38.6903C28.47 38.7631 28.4456 38.8358 28.4212 38.8965L28.0062 39.7999Z" fill="white"/>
<path d="M33.9689 38.3508C33.7858 38.1931 33.5905 38.0779 33.383 37.9991C33.1816 37.9203 32.9619 37.8839 32.7361 37.8839C32.2967 37.8839 31.9427 38.0234 31.6681 38.3023C31.3935 38.5812 31.2592 38.9389 31.2592 39.3815C31.2592 39.812 31.3935 40.1637 31.6559 40.4426C31.9244 40.7215 32.2601 40.8609 32.6629 40.8609C32.9009 40.8609 33.1267 40.8185 33.3403 40.7336C33.5539 40.6487 33.7614 40.5275 33.9567 40.3577V41.0853C33.7797 41.2126 33.5905 41.3036 33.3891 41.3642C33.1816 41.4248 32.9619 41.4551 32.7239 41.4551C32.4188 41.4551 32.138 41.4066 31.8756 41.3036C31.6193 41.2066 31.3874 41.061 31.1921 40.867C30.9968 40.679 30.8442 40.4547 30.7405 40.2001C30.6367 39.9393 30.5818 39.6665 30.5818 39.3755C30.5818 39.0844 30.6367 38.8116 30.7405 38.5569C30.8442 38.3023 30.9968 38.0779 31.1921 37.8839C31.3935 37.6899 31.6193 37.5383 31.8756 37.4413C32.1319 37.3443 32.4066 37.2897 32.7056 37.2897C32.9375 37.2897 33.1633 37.3261 33.3769 37.3928C33.5905 37.4595 33.798 37.5625 33.9933 37.702L33.9689 38.3508Z" fill="white"/>
<path d="M35.4274 37.3867H34.7805V41.3521H35.4274V37.3867Z" fill="white"/>
<path d="M40.4561 39.3815C40.4561 39.6665 40.4012 39.9272 40.2974 40.1819C40.1876 40.4305 40.035 40.6548 39.8336 40.8549C39.6261 41.055 39.3942 41.2005 39.1379 41.3096C38.8816 41.4127 38.6069 41.4673 38.3262 41.4673C38.0394 41.4673 37.7647 41.4188 37.5023 41.3096C37.2399 41.2065 37.008 41.055 36.8127 40.8609C36.6113 40.6669 36.4526 40.4426 36.3489 40.194C36.2451 39.9454 36.1902 39.6786 36.1902 39.3936C36.1902 39.1087 36.2451 38.8419 36.3489 38.5933C36.4526 38.3447 36.6113 38.1204 36.8127 37.9203C37.0202 37.7202 37.246 37.5747 37.5084 37.4716C37.7647 37.3685 38.0394 37.32 38.3262 37.32C38.613 37.32 38.8877 37.3746 39.144 37.4716C39.4003 37.5747 39.6322 37.7263 39.8336 37.9203C40.035 38.1204 40.1937 38.3447 40.2974 38.5994C40.4073 38.8358 40.4561 39.1026 40.4561 39.3815ZM39.7787 39.3815C39.7787 39.1814 39.7421 38.9935 39.6688 38.8116C39.5956 38.6297 39.4919 38.472 39.3515 38.3265C39.2172 38.1871 39.0586 38.084 38.8816 38.0052C38.7046 37.9324 38.5154 37.896 38.3201 37.896C38.1248 37.896 37.9356 37.9324 37.7586 38.0052C37.5816 38.0779 37.423 38.1871 37.2887 38.3265C37.1483 38.466 37.0446 38.6236 36.9714 38.8055C36.8981 38.9874 36.8615 39.1754 36.8615 39.3815C36.8615 39.5816 36.8981 39.7696 36.9714 39.9515C37.0446 40.1334 37.1483 40.291 37.2887 40.4305C37.4291 40.5699 37.5816 40.679 37.7586 40.7518C37.9356 40.8246 38.1248 40.8609 38.3201 40.8609C38.5154 40.8609 38.6985 40.8246 38.8755 40.7518C39.0525 40.679 39.2111 40.5699 39.3515 40.4305C39.4919 40.291 39.5956 40.1273 39.6688 39.9515C39.7421 39.7696 39.7787 39.5755 39.7787 39.3815ZM37.9417 36.9987L38.4605 36.265H39.0708L38.2774 36.9987H37.9417Z" fill="white"/>
<path d="M41.2007 41.3521V37.2291L43.7334 39.6544C43.8005 39.7211 43.8738 39.7938 43.947 39.8726C44.0202 39.9515 44.0935 40.0363 44.1728 40.1334V37.3806H44.7709V41.5036L42.1833 39.0359C42.1161 38.9692 42.049 38.8965 41.9819 38.8237C41.9147 38.7509 41.8537 38.6721 41.7988 38.5933V41.3521H41.2007Z" fill="white"/>
<path d="M47.7493 39.2906C47.7493 39.0662 47.8286 38.8783 47.9873 38.7206C48.146 38.563 48.3351 38.4902 48.561 38.4902C48.7807 38.4902 48.9699 38.569 49.1285 38.7267C49.2872 38.8843 49.3665 39.0723 49.3665 39.2906C49.3665 39.5088 49.2872 39.6968 49.1285 39.8544C48.9699 40.0121 48.7807 40.0909 48.5549 40.0909C48.329 40.0909 48.1399 40.0121 47.9812 39.8544C47.8347 39.7029 47.7493 39.5149 47.7493 39.2906Z" fill="white"/>
<path d="M52.125 40.5639L52.6437 40.3274C52.6926 40.5032 52.7841 40.6366 52.9123 40.7336C53.0465 40.8246 53.2113 40.8731 53.4127 40.8731C53.6019 40.8731 53.7606 40.8185 53.8704 40.7154C53.9803 40.6063 54.0413 40.4668 54.0413 40.2849C54.0413 40.0545 53.846 39.8423 53.4554 39.6604C53.4005 39.6301 53.3578 39.6119 53.3273 39.5998C52.8879 39.3876 52.5949 39.1936 52.4485 39.0238C52.302 38.854 52.2287 38.6418 52.2287 38.3932C52.2287 38.0719 52.3386 37.8111 52.5583 37.605C52.778 37.4049 53.0709 37.3018 53.4249 37.3018C53.7179 37.3018 53.9681 37.3564 54.1634 37.4716C54.3648 37.5868 54.499 37.7444 54.5723 37.9567L54.0657 38.2174C53.9864 38.0961 53.9009 38.0052 53.8033 37.9445C53.7057 37.8839 53.5958 37.8597 53.4737 37.8597C53.2968 37.8597 53.1625 37.9082 53.0587 37.993C52.955 38.084 52.9062 38.2053 52.9062 38.3568C52.9062 38.5933 53.132 38.8176 53.5836 39.0238C53.6202 39.0359 53.6446 39.0541 53.6629 39.0602C54.0596 39.2421 54.3281 39.4179 54.4746 39.5877C54.6211 39.7574 54.6943 39.9757 54.6943 40.2364C54.6943 40.6124 54.5723 40.9095 54.3342 41.1338C54.0962 41.3521 53.7728 41.4673 53.37 41.4673C53.0282 41.4673 52.7536 41.3885 52.5339 41.2369C52.3325 41.0732 52.1921 40.8488 52.125 40.5639Z" fill="white"/>
<path d="M55.4207 41.3521V37.3867H57.6482V37.9385H56.0676V38.9328H57.6482V39.4967H56.0676V40.7761H57.6482V41.3521H55.4207Z" fill="white"/>
<path d="M58.9968 39.5816V41.3581H58.3865V37.3928H59.2897C59.5521 37.3928 59.7596 37.411 59.9061 37.4413C60.0526 37.4777 60.1746 37.5322 60.2784 37.6111C60.4004 37.7081 60.4981 37.8293 60.5652 37.9809C60.6323 38.1325 60.6629 38.3023 60.6629 38.4781C60.6629 38.7934 60.5835 39.048 60.4309 39.2239C60.2784 39.4058 60.0465 39.5149 59.7474 39.5452L61.1206 41.3521H60.3882L59.0578 39.5755H58.9968V39.5816ZM59.0395 39.0784H59.1554C59.4972 39.0784 59.7291 39.0359 59.839 38.9571C59.9549 38.8783 60.0099 38.7388 60.0099 38.5327C60.0099 38.3144 59.9488 38.1628 59.8268 38.0719C59.7047 37.9809 59.4789 37.9385 59.1554 37.9385H59.0395V39.0784Z" fill="white"/>
<path d="M62.7867 41.5097L61.0046 37.3867H61.676L62.5731 39.5028C62.628 39.624 62.6707 39.7393 62.7074 39.8423C62.744 39.9454 62.7684 40.0485 62.7867 40.1394C62.8111 40.0424 62.8416 39.9393 62.8782 39.8302C62.9148 39.7211 62.9576 39.6119 63.0064 39.5028L63.8974 37.3867H64.5687L62.7867 41.5097Z" fill="white"/>
<path d="M65.6308 37.3867H64.9839V41.3521H65.6308V37.3867Z" fill="white"/>
<path d="M69.7685 38.3508C69.5854 38.1931 69.3901 38.0779 69.1887 37.9991C68.9812 37.9203 68.7676 37.8839 68.5418 37.8839C68.1024 37.8839 67.7484 38.0234 67.4799 38.3023C67.2052 38.5812 67.071 38.9389 67.071 39.3815C67.071 39.812 67.2052 40.1637 67.4677 40.4426C67.7362 40.7215 68.0719 40.8609 68.4746 40.8609C68.7127 40.8609 68.9385 40.8185 69.1521 40.7336C69.3657 40.6487 69.5732 40.5275 69.7685 40.3577V41.0853C69.5915 41.2126 69.4023 41.3036 69.2009 41.3642C68.9934 41.4248 68.7737 41.4551 68.5296 41.4551C68.2244 41.4551 67.9437 41.4066 67.6813 41.3036C67.4188 41.2066 67.193 41.061 66.9977 40.867C66.8024 40.679 66.656 40.4547 66.5461 40.2001C66.4424 39.9393 66.3936 39.6665 66.3936 39.3755C66.3936 39.0844 66.4424 38.8116 66.5461 38.5569C66.6499 38.3023 66.8024 38.0779 66.9977 37.8839C67.1991 37.6899 67.4249 37.5383 67.6813 37.4413C67.9376 37.3443 68.2183 37.2897 68.5174 37.2897C68.7493 37.2897 68.9751 37.3261 69.1887 37.3928C69.4023 37.4595 69.6098 37.5625 69.8051 37.702L69.7685 38.3508Z" fill="white"/>
<path d="M71.2331 37.3867H70.5862V41.3521H71.2331V37.3867Z" fill="white"/>
<path d="M76.2559 39.3815C76.2559 39.6665 76.201 39.9272 76.0972 40.1819C75.9935 40.4305 75.8348 40.6548 75.6334 40.8549C75.4259 41.055 75.194 41.2005 74.9377 41.3096C74.6814 41.4127 74.4067 41.4673 74.126 41.4673C73.8392 41.4673 73.5645 41.4188 73.3021 41.3096C73.0397 41.2066 72.8078 41.055 72.6125 40.861C72.4111 40.6669 72.2524 40.4426 72.1487 40.194C72.0449 39.9454 71.99 39.6786 71.99 39.3936C71.99 39.1087 72.0449 38.8419 72.1487 38.5933C72.2524 38.3447 72.4111 38.1204 72.6125 37.9203C72.8139 37.7202 73.0458 37.5747 73.3082 37.4716C73.5645 37.3685 73.8392 37.32 74.1321 37.32C74.4189 37.32 74.6936 37.3746 74.9499 37.4716C75.2062 37.5686 75.4381 37.7263 75.6395 37.9203C75.8409 38.1204 75.9996 38.3447 76.1033 38.5994C76.2071 38.8358 76.2559 39.1026 76.2559 39.3815ZM75.5846 39.3815C75.5846 39.1814 75.548 38.9935 75.4748 38.8116C75.4015 38.6297 75.2978 38.472 75.1574 38.3265C75.0231 38.1871 74.8645 38.084 74.6875 38.0052C74.5105 37.9324 74.3213 37.896 74.126 37.896C73.9307 37.896 73.7415 37.9324 73.5645 38.0052C73.3876 38.0779 73.2289 38.1871 73.0885 38.3265C72.9481 38.466 72.8444 38.6236 72.7712 38.8055C72.6979 38.9874 72.6613 39.1754 72.6613 39.3815C72.6613 39.5816 72.6979 39.7696 72.7712 39.9515C72.8444 40.1273 72.9481 40.291 73.0885 40.4305C73.2289 40.5699 73.3815 40.6791 73.5584 40.7518C73.7354 40.8246 73.9246 40.867 74.1199 40.867C74.3152 40.867 74.4983 40.8306 74.6753 40.7518C74.8523 40.6791 75.0109 40.5699 75.1513 40.4305C75.2917 40.291 75.3954 40.1273 75.4687 39.9515C75.548 39.7696 75.5846 39.5755 75.5846 39.3815Z" fill="white"/>
<path d="M79.0632 39.2906C79.0632 39.0662 79.1426 38.8783 79.3012 38.7206C79.4599 38.563 79.6491 38.4902 79.8749 38.4902C80.0946 38.4902 80.2899 38.569 80.4425 38.7267C80.6012 38.8843 80.6805 39.0723 80.6805 39.2906C80.6805 39.5088 80.6012 39.6968 80.4425 39.8544C80.2838 40.0121 80.0946 40.0909 79.8688 40.0909C79.643 40.0909 79.4538 40.0121 79.2951 39.8544C79.1426 39.7029 79.0632 39.5149 79.0632 39.2906Z" fill="white"/>
<path d="M83.439 40.5639L83.9577 40.3274C84.0065 40.5032 84.0981 40.6366 84.2262 40.7336C84.3605 40.8246 84.5253 40.8731 84.7267 40.8731C84.922 40.8731 85.0745 40.8185 85.1844 40.7154C85.2942 40.6063 85.3553 40.4668 85.3553 40.2849C85.3553 40.0545 85.16 39.8423 84.7694 39.6604C84.7145 39.6301 84.6718 39.6119 84.6412 39.5998C84.2018 39.3876 83.9089 39.1936 83.7624 39.0238C83.6159 38.854 83.5427 38.6418 83.5427 38.3932C83.5427 38.0719 83.6526 37.8111 83.8723 37.605C84.092 37.4049 84.3849 37.3018 84.7389 37.3018C85.0318 37.3018 85.282 37.3564 85.4773 37.4716C85.6787 37.5868 85.813 37.7444 85.8923 37.9567L85.3858 38.2174C85.3065 38.0961 85.221 38.0052 85.1234 37.9445C85.0257 37.8839 84.922 37.8597 84.7938 37.8597C84.6168 37.8597 84.4826 37.9082 84.3788 37.993C84.2751 38.084 84.2262 38.2053 84.2262 38.3568C84.2262 38.5933 84.452 38.8176 84.9037 39.0238C84.9403 39.0359 84.9647 39.0541 84.983 39.0602C85.3797 39.2421 85.6482 39.4179 85.7947 39.5877C85.9412 39.7574 86.0144 39.9757 86.0144 40.2364C86.0144 40.6124 85.8923 40.9095 85.6604 41.1338C85.4224 41.3521 85.099 41.4673 84.6962 41.4673C84.3544 41.4673 84.0798 41.3885 83.8601 41.2369C83.6465 41.0732 83.5061 40.8488 83.439 40.5639Z" fill="white"/>
<path d="M86.7163 37.3867H87.3571V39.7938C87.3571 40.1516 87.4426 40.4183 87.6073 40.6002C87.7721 40.7821 88.0223 40.867 88.3519 40.867C88.6814 40.867 88.9317 40.7761 89.0964 40.6002C89.2612 40.4183 89.3467 40.1516 89.3467 39.7938V37.3867H89.9997V39.8545C89.9997 40.3941 89.8593 40.7943 89.5908 41.061C89.3162 41.3278 88.9073 41.4612 88.358 41.4612C87.8087 41.4612 87.3998 41.3278 87.1313 41.0671C86.8628 40.8003 86.7224 40.4001 86.7224 39.8605V37.3867H86.7163Z" fill="white"/>
<path d="M94.1434 39.3936C94.1373 39.3633 94.1251 39.2784 94.1068 39.139C94.0946 39.0238 94.0763 38.9268 94.0702 38.854C94.0519 38.945 94.0336 39.0359 93.997 39.1269C93.9665 39.2178 93.9298 39.3088 93.8871 39.4058L92.8435 41.5218L91.7999 39.3633C91.7572 39.2724 91.7206 39.1875 91.6901 39.1026C91.6596 39.0177 91.629 38.9389 91.6046 38.8601C91.6046 38.945 91.5985 39.0299 91.5863 39.1208C91.5741 39.2118 91.5558 39.3088 91.5314 39.4058L91.1042 41.3581H90.5061L91.4521 37.223L92.6299 39.7271C92.6482 39.7696 92.6787 39.8302 92.7154 39.9211C92.752 40.0121 92.8008 40.1273 92.8496 40.2607C92.8862 40.1455 92.9473 40 93.0266 39.8241C93.051 39.7756 93.0632 39.7393 93.0754 39.715L94.2289 37.2169L95.1931 41.3521H94.589L94.1434 39.3936Z" fill="white"/>
<path d="M96.3649 37.3867H95.718V41.3521H96.3649V37.3867Z" fill="white"/>
<path d="M97.2988 41.3521V37.2291L99.8376 39.6544C99.9048 39.7211 99.978 39.7938 100.045 39.8726C100.118 39.9515 100.192 40.0363 100.271 40.1334V37.3806H100.869V41.5036L98.2814 39.0359C98.2143 38.9692 98.1471 38.8965 98.08 38.8237C98.0129 38.7509 97.9518 38.6721 97.8969 38.5933V41.3521H97.2988Z" fill="white"/>
<path d="M102.45 37.3867H101.797V41.3521H102.45V37.3867Z" fill="white"/>
<path d="M103.145 40.5639L103.664 40.3274C103.713 40.5032 103.804 40.6366 103.933 40.7336C104.061 40.8246 104.232 40.8731 104.433 40.8731C104.628 40.8731 104.781 40.8185 104.891 40.7154C105.007 40.6063 105.062 40.4668 105.062 40.2849C105.062 40.0545 104.866 39.8423 104.476 39.6604C104.421 39.6301 104.378 39.6119 104.348 39.5998C103.908 39.3876 103.615 39.1936 103.469 39.0238C103.322 38.854 103.249 38.6418 103.249 38.3932C103.249 38.0719 103.359 37.8111 103.579 37.605C103.798 37.4049 104.091 37.3018 104.445 37.3018C104.738 37.3018 104.988 37.3564 105.184 37.4716C105.385 37.5868 105.519 37.7444 105.599 37.9567L105.092 38.2174C105.013 38.0961 104.927 38.0052 104.83 37.9445C104.732 37.8839 104.628 37.8597 104.5 37.8597C104.323 37.8597 104.189 37.9082 104.085 37.993C103.981 38.084 103.933 38.2053 103.933 38.3568C103.933 38.5933 104.158 38.8176 104.61 39.0238C104.647 39.0359 104.671 39.0541 104.689 39.0602C105.086 39.2421 105.355 39.4179 105.501 39.5877C105.647 39.7574 105.721 39.9757 105.721 40.2364C105.721 40.6124 105.605 40.9095 105.367 41.1338C105.129 41.3521 104.805 41.4673 104.402 41.4673C104.061 41.4673 103.786 41.3885 103.566 41.2369C103.359 41.0732 103.218 40.8488 103.145 40.5639Z" fill="white"/>
<path d="M107.735 37.9385V41.3521H107.082V37.9385H106.026V37.3867H108.79V37.9385H107.735Z" fill="white"/>
<path d="M109.895 39.5816V41.3581H109.285V37.3928H110.188C110.457 37.3928 110.658 37.411 110.805 37.4413C110.951 37.4777 111.073 37.5322 111.177 37.6111C111.299 37.7081 111.397 37.8293 111.464 37.9809C111.531 38.1325 111.567 38.3023 111.567 38.4781C111.567 38.7934 111.488 39.048 111.335 39.2239C111.183 39.4058 110.951 39.5149 110.652 39.5452L112.025 41.3521H111.293L109.968 39.5755H109.895V39.5816ZM109.932 39.0784H110.048C110.39 39.0784 110.621 39.0359 110.731 38.9571C110.841 38.8783 110.902 38.7388 110.902 38.5327C110.902 38.3144 110.841 38.1628 110.719 38.0719C110.597 37.9809 110.377 37.9385 110.048 37.9385H109.932V39.0784Z" fill="white"/>
<path d="M116.504 39.3815C116.504 39.6665 116.45 39.9272 116.346 40.1819C116.242 40.4305 116.083 40.6548 115.882 40.8549C115.674 41.055 115.443 41.2005 115.186 41.3096C114.93 41.4127 114.655 41.4673 114.375 41.4673C114.088 41.4673 113.813 41.4188 113.551 41.3096C113.288 41.2066 113.056 41.055 112.861 40.861C112.66 40.6669 112.501 40.4426 112.397 40.194C112.293 39.9454 112.239 39.6786 112.239 39.3936C112.239 39.1087 112.293 38.8419 112.397 38.5933C112.501 38.3447 112.66 38.1204 112.861 37.9203C113.069 37.7202 113.294 37.5747 113.557 37.4716C113.813 37.3685 114.088 37.32 114.375 37.32C114.661 37.32 114.936 37.3746 115.192 37.4716C115.449 37.5747 115.681 37.7263 115.882 37.9203C116.083 38.1204 116.242 38.3447 116.346 38.5994C116.45 38.8358 116.504 39.1026 116.504 39.3815ZM115.827 39.3815C115.827 39.1814 115.79 38.9935 115.717 38.8116C115.644 38.6297 115.534 38.472 115.4 38.3265C115.266 38.1871 115.107 38.084 114.93 38.0052C114.753 37.9324 114.564 37.896 114.368 37.896C114.173 37.896 113.984 37.9324 113.807 38.0052C113.63 38.0779 113.471 38.1871 113.331 38.3265C113.191 38.466 113.087 38.6236 113.014 38.8055C112.94 38.9874 112.904 39.1754 112.904 39.3815C112.904 39.5816 112.94 39.7696 113.014 39.9515C113.087 40.1273 113.191 40.291 113.331 40.4305C113.471 40.5699 113.624 40.6791 113.801 40.7518C113.978 40.8246 114.167 40.867 114.362 40.867C114.558 40.867 114.741 40.8306 114.918 40.7518C115.095 40.6791 115.253 40.5699 115.394 40.4305C115.534 40.291 115.638 40.1273 115.711 39.9515C115.79 39.7696 115.827 39.5755 115.827 39.3815Z" fill="white"/>
<path d="M169.124 0.898193H136.607C133.916 0.898193 131.731 3.06883 131.731 5.74271V38.0476C131.731 40.7215 133.916 42.8921 136.607 42.8921H169.124C171.815 42.8921 174 40.7215 174 38.0476V5.74271C174 3.06883 171.815 0.898193 169.124 0.898193ZM169.49 36.5621H136.235V7.22821H169.49V36.5621Z" fill="white"/>
</g>
<defs>
<clipPath id="clip0_43_1314">
<rect width="174" height="42" fill="white" transform="translate(0 0.898193)"/>
</clipPath>
</defs>
</svg>
