<?xml version="1.0" encoding="utf-8"?>
<!-- Generator: Adobe Illustrator 17.1.0, SVG Export Plug-In . SVG Version: 6.00 Build 0)  -->
<!DOCTYPE svg PUBLIC "-//W3C//DTD SVG 1.1//EN" "http://www.w3.org/Graphics/SVG/1.1/DTD/svg11.dtd">
<svg version="1.1" id="Capa_1" xmlns="http://www.w3.org/2000/svg" xmlns:xlink="http://www.w3.org/1999/xlink" x="0px" y="0px"
	 viewBox="4292.4 3545.9 81.4 85.9" enable-background="new 4292.4 3545.9 81.4 85.9" xml:space="preserve">
<g>
	<path fill="#707071" d="M4326.1,3569.8c0,1.6-1.3,2.9-2.9,2.9l0,0c-1.6,0-2.9-1.3-2.9-2.9v-4.6c0-1.6,1.3-2.9,2.9-2.9l0,0
		c1.6,0,2.9,1.3,2.9,2.9V3569.8z"/>
	<path fill="#707071" d="M4345.2,3569.8c0,1.6-1.3,2.9-2.9,2.9l0,0c-1.6,0-2.9-1.3-2.9-2.9v-4.6c0-1.6,1.3-2.9,2.9-2.9l0,0
		c1.6,0,2.9,1.3,2.9,2.9V3569.8z"/>
	<path fill="#707071" d="M4351.1,3567.5h-4.7v3.4c0,2.3-1.9,4.1-4.1,4.1s-4.1-1.9-4.1-4.1v-3.4h-10.8v3.4c0,2.3-1.9,4.1-4.1,4.1
		s-4.1-1.9-4.1-4.1v-3.4h-4.7c-2.1,0-3.9,1.7-3.9,3.9v40c0,2.1,1.7,3.9,3.9,3.9h36.7c2.1,0,3.9-1.7,3.9-3.9v-40
		C4355,3569.2,4353.3,3567.5,4351.1,3567.5z M4350.4,3607.7c0,1.7-1.4,3.1-3.1,3.1h-29.1c-1.7,0-3.1-1.4-3.1-3.1v-27.5
		c0-1.7,1.4-3.1,3.1-3.1h29.1c1.7,0,3.1,1.4,3.1,3.1V3607.7z"/>
	<path fill="#707071" d="M4345.6,3601.9c0,0.7-0.5,1.2-1.2,1.2h-22.9c-0.7,0-1.2-0.5-1.2-1.2l0,0c0-0.7,0.5-1.2,1.2-1.2h22.9
		C4345,3600.7,4345.6,3601.2,4345.6,3601.9L4345.6,3601.9z"/>
	<path fill="#707071" d="M4345.6,3606.1c0,0.7-0.5,1.2-1.2,1.2h-22.9c-0.7,0-1.2-0.5-1.2-1.2l0,0c0-0.7,0.5-1.2,1.2-1.2h22.9
		C4345,3604.9,4345.6,3605.4,4345.6,3606.1L4345.6,3606.1z"/>
	<g>
		<g>
			<path fill="#707071" d="M4326.2,3584h2.4v12.4h-2.8v-7.9h-1.9v-2.1h0.5c0.6,0,1.1-0.2,1.4-0.5c0.3-0.3,0.5-0.8,0.5-1.5V3584z"/>
			<path fill="#707071" d="M4337.4,3584h2.9v6.7h1.4v2.1h-1.4v3.5h-2.9v-3.5h-4.3v-2.3L4337.4,3584z M4337.4,3587.6l-2,3.2h2V3587.6
				z"/>
		</g>
	</g>
</g>
</svg>
