<?xml version="1.0" encoding="utf-8"?>
<!-- Generator: Adobe Illustrator 17.1.0, SVG Export Plug-In . SVG Version: 6.00 Build 0)  -->
<!DOCTYPE svg PUBLIC "-//W3C//DTD SVG 1.1//EN" "http://www.w3.org/Graphics/SVG/1.1/DTD/svg11.dtd">
<svg version="1.1" id="Capa_1" xmlns="http://www.w3.org/2000/svg" xmlns:xlink="http://www.w3.org/1999/xlink" x="0px" y="0px"
	 viewBox="4292.4 3545.9 81.4 85.9" enable-background="new 4292.4 3545.9 81.4 85.9" xml:space="preserve">
<path fill="#707071" d="M4348.5,3591.9c0-0.8-0.1-1.6-0.2-2.3l4.9-4l-4.6-8l-5.9,2.2c-1.2-1-2.6-1.8-4-2.3l-1.1-6.2h-9.3l-1,6.2
	c-1.5,0.6-2.8,1.4-4,2.3l-5.9-2.2l-4.6,8l4.9,4c-0.1,0.8-0.2,1.5-0.2,2.3s0.1,1.6,0.2,2.3l-4.9,4l4.6,8l5.9-2.2c1.2,1,2.6,1.8,4,2.3
	l1,6.2h9.3l1.1-6.2c1.5-0.6,2.8-1.4,4-2.3l5.9,2.2l4.6-8l-4.9-4C4348.5,3593.4,4348.5,3592.7,4348.5,3591.9z M4333,3600.3
	c-4.6,0-8.4-3.8-8.4-8.4c0-4.6,3.8-8.4,8.4-8.4s8.4,3.8,8.4,8.4C4341.4,3596.5,4337.6,3600.3,4333,3600.3z"/>
</svg>
