<?xml version="1.0" encoding="utf-8"?>
<!-- Generator: Adobe Illustrator 17.1.0, SVG Export Plug-In . SVG Version: 6.00 Build 0)  -->
<!DOCTYPE svg PUBLIC "-//W3C//DTD SVG 1.1//EN" "http://www.w3.org/Graphics/SVG/1.1/DTD/svg11.dtd">
<svg version="1.1" id="Capa_1" xmlns="http://www.w3.org/2000/svg" xmlns:xlink="http://www.w3.org/1999/xlink" x="0px" y="0px"
	 viewBox="4292.4 3545.9 81.4 85.9" enable-background="new 4292.4 3545.9 81.4 85.9" xml:space="preserve">
<g>
	<g>
		<path fill="#707071" d="M4330.3,3569.3c1.2,0.5,2.1,1.2,2.4,2.5c0.5,2.1-1,4.2-3.1,4.2c-2.5,0-4.9,0-7.4,0c-1.5,0-2.1,0.6-2.1,2.1
			c0,8.9,0,17.8,0,26.7c0,1.5,0.6,2.1,2.1,2.1c2.4,0,4.8,0,7.2,0c1.8,0,3.2,1.1,3.5,2.8c0.3,1.6-0.7,3.2-2.4,3.8
			c-0.1,0-0.2,0.1-0.2,0.1c-3.7,0-7.4,0-11.1,0c-0.1-0.1-0.3-0.1-0.4-0.1c-3-0.7-5.2-3.3-5.2-6.3c-0.1-4.5,0-8.9,0-13.4
			c0-6,0-11.9,0-17.9c0-2,0.9-3.7,2.5-5c0.9-0.8,2-1.2,3.2-1.5C4322.8,3569.3,4326.5,3569.3,4330.3,3569.3z"/>
		<path fill="#707071" d="M4344.8,3588.1c-0.3-0.3-0.4-0.5-0.6-0.6c-1.9-1.9-3.8-3.8-5.7-5.7c-1.8-1.9-1-4.9,1.5-5.6
			c1.3-0.4,2.4,0,3.4,0.9c2.4,2.4,4.8,4.8,7.2,7.2c1.6,1.6,3.2,3.2,4.7,4.7c1.5,1.5,1.5,3.5,0,4.9c-4,4-8,8-12,11.9
			c-1.9,1.9-5.1,1.1-5.7-1.5c-0.3-1.2,0-2.3,0.9-3.3c1.9-1.9,3.8-3.8,5.6-5.6c0.2-0.2,0.4-0.3,0.6-0.5c0-0.1,0-0.1-0.1-0.2
			c-0.2,0-0.5,0-0.7,0c-5.5,0-11,0-16.5,0c-1.8,0-3.2-1.3-3.4-3c-0.2-1.7,0.9-3.2,2.6-3.6c0.3-0.1,0.7-0.1,1-0.1
			c5.4,0,10.8,0,16.2,0C4344.2,3588.1,4344.4,3588.1,4344.8,3588.1z"/>
	</g>
</g>
</svg>
