<?xml version="1.0" encoding="utf-8"?>
<!-- Generator: Adobe Illustrator 17.1.0, SVG Export Plug-In . SVG Version: 6.00 Build 0)  -->
<!DOCTYPE svg PUBLIC "-//W3C//DTD SVG 1.1//EN" "http://www.w3.org/Graphics/SVG/1.1/DTD/svg11.dtd">
<svg version="1.1" id="Capa_1" xmlns="http://www.w3.org/2000/svg" xmlns:xlink="http://www.w3.org/1999/xlink" x="0px" y="0px"
	 viewBox="4292.4 3545.9 81.4 85.9" enable-background="new 4292.4 3545.9 81.4 85.9" xml:space="preserve">
<path fill="#707071" d="M4330.7,3610c-3.7,0-7.5,0-11.2,0c-4.4,0-7.8-2-9.6-6c-1.9-4-1.3-7.9,1.5-11.5c0.5-0.7,0.9-1.6,1.2-2.4
	c1.3-5.1,4.4-8.4,9.5-9.8c0.9-0.3,1.9-0.7,2.6-1.3c7.7-7,19.6-4.5,23.7,5.1c0.4,0.8,1,1.6,1.7,2.1c4.6,3.7,6.3,9.5,4.5,14.9
	c-1.9,5.4-6.7,8.9-12.5,8.9C4338.2,3610,4334.4,3610,4330.7,3610z M4330.1,3580.9c3,1.7,5.2,3.7,6.5,6.6c0.5,1.3,0.2,2.4-1,3.1
	c-1.3,0.7-2.3,0.3-3.1-0.9c-0.2-0.3-0.3-0.6-0.5-0.9c-1.9-3.3-5.4-4.8-8.8-4c-3.6,0.9-5.9,3.8-6.2,7.7c-0.1,0.8-0.6,1.7-1.2,2.2
	c-1.9,1.7-2.8,4-2.1,6.3c0.7,2.3,2.7,4.1,5.2,4.1c7.9,0.1,15.8,0.1,23.7,0c3.6-0.1,6.8-3,7.6-6.4c0.9-3.7-0.6-7.4-3.9-9.3
	c-1.2-0.7-1.7-1.5-2.2-2.8C4342.3,3580.8,4335.7,3578,4330.1,3580.9z"/>
</svg>
