<?xml version="1.0" encoding="utf-8"?>
<!-- Generator: Adobe Illustrator 17.1.0, SVG Export Plug-In . SVG Version: 6.00 Build 0)  -->
<!DOCTYPE svg PUBLIC "-//W3C//DTD SVG 1.1//EN" "http://www.w3.org/Graphics/SVG/1.1/DTD/svg11.dtd">
<svg version="1.1" id="Capa_1" xmlns="http://www.w3.org/2000/svg" xmlns:xlink="http://www.w3.org/1999/xlink" x="0px" y="0px"
	 viewBox="4292.4 3545.9 81.4 85.9" enable-background="new 4292.4 3545.9 81.4 85.9" xml:space="preserve">
<g>
	<path fill="#707071" d="M4352.1,3595.2c0,0.2,0,0.4,0,0.6c0,4.1,0,8.2,0,12.3c0,2.5-1.9,4.7-4.3,5.3c-0.5,0.1-1,0.1-1.5,0.1
		c-2.3,0-4.6,0-6.8,0c-1.5,0-2.5-1.2-2.4-2.4c0.1-3.4,0-6.8,0-10.1c0-0.4-0.1-0.8-0.4-1.2c-0.2-0.2-0.6-0.4-0.9-0.4
		c-1.5,0-2.9,0-4.4,0c-0.8,0-1.3,0.5-1.3,1.3c0,3.5,0,7,0,10.5c0,1.4-0.9,2.3-2.3,2.3c-2.4,0-4.7,0-7.1,0c-3.1,0-5.6-2.6-5.7-5.5
		c0-3.2,0-6.4,0-9.6c0-1.1,0-2.2,0-3.4c-1.1-0.1-2.1-0.4-3-1.1c-1.4-1.2-2-2.7-1.8-4.5c0.1-1.2,0.7-2.2,1.5-3
		c6.1-6.1,12.2-12.1,18.2-18.2c1.9-1.9,5.4-2,7.2-0.2c2.1,2.2,4.4,4.4,6.6,6.6c4,4,8.1,8.1,12.1,12.1c0.8,0.8,1.3,1.8,1.2,3
		c0,0.8,0,1.6-0.3,2.4C4355.8,3593.9,4353.9,3595.1,4352.1,3595.2z M4341.3,3609.3c1.6,0,3.2,0,4.8,0c1.1,0,1.6-0.5,1.6-1.7
		c0-3.2,0-6.4,0-9.6c0-1.6,0-3.3,0-4.9c0-1.5,0.9-2.3,2.4-2.3c0.6,0,1.2,0,1.8,0c0.2,0,0.5-0.1,0.6-0.3c0.1-0.2,0-0.5-0.1-0.8
		c0-0.1-0.2-0.2-0.3-0.3c-6-6-11.9-11.9-17.9-17.9c-0.6-0.6-0.9-0.6-1.5,0c-6,6-12,12-18,18c-0.1,0.1-0.1,0.1-0.2,0.2
		c-0.1,0.3-0.2,0.6-0.1,0.8c0.1,0.2,0.4,0.3,0.6,0.3c0.6,0,1.1,0.1,1.7,0c1.4-0.1,2.5,1,2.5,2.5c0,4.8,0,9.6,0,14.4
		c0,1.1,0.5,1.6,1.6,1.6c1.4,0,2.9,0,4.3,0c0.1,0,0.2,0,0.4,0c0-0.2,0-0.4,0-0.5c0-2.5,0-4.9,0-7.4c0-0.5,0-1,0.1-1.4
		c0.5-2.7,2.9-4.8,5.6-4.8c1.4,0,2.9,0,4.3,0c1.1,0,2.2,0.3,3.1,1c1.6,1.1,2.6,2.6,2.6,4.7c0,2.7,0,5.3,0,8
		C4341.3,3608.8,4341.3,3609,4341.3,3609.3z"/>
</g>
</svg>
