<?xml version="1.0" encoding="utf-8"?>
<!-- Generator: Adobe Illustrator 17.1.0, SVG Export Plug-In . SVG Version: 6.00 Build 0)  -->
<!DOCTYPE svg PUBLIC "-//W3C//DTD SVG 1.1//EN" "http://www.w3.org/Graphics/SVG/1.1/DTD/svg11.dtd">
<svg version="1.1" id="Capa_1" xmlns="http://www.w3.org/2000/svg" xmlns:xlink="http://www.w3.org/1999/xlink" x="0px" y="0px"
	 viewBox="4292.4 3545.9 81.4 85.9" enable-background="new 4292.4 3545.9 81.4 85.9" xml:space="preserve">
<g>
	<path fill="#707071" d="M4312.2,3592c0-5.6-0.1-11.1,0.1-16.7c0-1.5,0.8-2.9,1.3-4.4c0.2-0.5,0.7-0.9,0.6-1.3
		c-0.4-3.4,1.8-3.3,4.1-3.3c9.3,0.1,18.6,0,27.9,0c2.2,0,3.9,0.2,3.6,3c0,0.2,0,0.6,0.2,0.7c2.8,2.9,1.9,6.5,1.9,10
		c0.1,9.3,0.1,18.6,0.1,27.9c0,5-2.2,7.2-7.1,7.1c-8.6,0-17.1,0-25.7,0c-5,0-7-2.1-7-7.2C4312.2,3602.6,4312.2,3597.3,4312.2,3592
		C4312.2,3592,4312.2,3592,4312.2,3592z M4317.1,3575.3c-0.1,0.6-0.2,0.9-0.2,1.2c0,10.5,0,21.1,0,31.6c0,2,1.1,2.3,2.7,2.3
		c8.3,0,16.6-0.1,24.9,0c2,0,2.8-0.6,2.8-2.7c-0.1-6.4,0-12.8,0-19.2c0-4.4,0-8.7,0-13.2C4337,3575.3,4327.1,3575.3,4317.1,3575.3z
		 M4340.1,3573.9c1-1.5,2.1-2.4,2-3.1c-0.1-0.8-1.4-2-2.1-2c-0.8,0-2,1.3-2,2.1C4337.9,3571.6,4339,3572.5,4340.1,3573.9z
		 M4324,3567.7c-1,1.5-2.1,2.4-2,3.2c0.1,0.8,1.4,2,2.1,2c0.7,0,1.9-1.3,2-2.1C4326.2,3569.9,4325,3569.1,4324,3567.7z"/>
	<path fill="#707071" d="M4344.8,3584.9c-5.1,0-9.9,0-14.9,0c0-0.9,0-1.7,0-2.7c5,0,9.9,0,14.9,0
		C4344.8,3583.1,4344.8,3583.8,4344.8,3584.9z"/>
	<path fill="#707071" d="M4345,3596.4c-5.2,0-10.1,0-15.1,0c-0.1-0.9-0.1-1.7-0.2-2.7c5.1,0,10,0,15.2,0
		C4344.9,3594.5,4344.9,3595.3,4345,3596.4z"/>
	<path fill="#707071" d="M4344.8,3603.3c0,1,0,1.8,0,2.7c-5,0-9.9,0-14.9,0c0-0.9,0-1.7,0-2.7
		C4334.9,3603.3,4339.7,3603.3,4344.8,3603.3z"/>
	<path fill="#707071" d="M4329.9,3589.6c-2.3,3.1-4.4,5.9-6.7,9.1c-1.6-2.4-3-4.7-4.5-7c2.5-0.6,2.5-0.6,4.5,1.8
		C4325.4,3592.3,4325.8,3588.1,4329.9,3589.6z"/>
	<path fill="#707071" d="M4323.2,3587.3c-1.7-2.6-3.1-4.8-4.5-7c0.2-0.3,0.3-0.5,0.5-0.8c1.3,0.7,2.6,1.4,4.4,2.3
		c1.6-0.9,2-5.1,6.2-3.7C4327.8,3581.1,4325.6,3584,4323.2,3587.3z"/>
</g>
</svg>
