<?xml version="1.0" encoding="utf-8"?>
<!-- Generator: Adobe Illustrator 17.1.0, SVG Export Plug-In . SVG Version: 6.00 Build 0)  -->
<!DOCTYPE svg PUBLIC "-//W3C//DTD SVG 1.1//EN" "http://www.w3.org/Graphics/SVG/1.1/DTD/svg11.dtd">
<svg version="1.1" id="Capa_1" xmlns="http://www.w3.org/2000/svg" xmlns:xlink="http://www.w3.org/1999/xlink" x="0px" y="0px"
	 viewBox="4292.4 3545.9 81.4 85.9" enable-background="new 4292.4 3545.9 81.4 85.9" xml:space="preserve">
<g>
	<path fill="#707071" d="M4317.5,3589.7c6,0,11.5,0,17.1,0c2.5,0,5-0.1,7.5,0c1.7,0,3.1-0.5,3.1-2.4c0-1.8-1.3-2.4-3.1-2.4
		c-7.9,0-15.8,0-23.7,0c-0.9,0-1.8,0-2.7,0c-0.7-1.8-1.4-3.4-2-5c-1.8-5.3-5.1-9.3-10.1-11.8c-1.5-0.8-2.2-1.9-1.4-3.4
		c0.8-1.4,2.1-1.3,3.5-0.6c4,2,7.2,4.8,9.4,8.6c1,1.6,2.1,2,3.8,2c11.4-0.1,22.8,0,34.2,0c4.2,0,4.9,1,3.5,4.9
		c-2.4,6.5-4.9,12.9-7.1,19.4c-0.8,2.4-2.1,3.2-4.6,3.1c-6.6-0.2-13.3-0.1-19.9,0c-1.9,0-2.9-0.6-3.5-2.4
		C4320.2,3596.5,4318.9,3593.3,4317.5,3589.7z"/>
	<path fill="#707071" d="M4344.4,3616.9c-3.5,0-6.3-2.7-6.4-6.2c0-3.5,2.8-6.4,6.2-6.4c3.5,0,6.3,2.8,6.4,6.2
		C4350.8,3613.9,4347.9,3616.8,4344.4,3616.9z"/>
	<path fill="#707071" d="M4326.1,3616.9c-3.5,0-6.3-2.7-6.3-6.2c0-3.5,2.7-6.4,6.2-6.4c3.5,0,6.4,2.8,6.4,6.3
		C4332.4,3614,4329.6,3616.8,4326.1,3616.9z"/>
</g>
</svg>
