<?xml version="1.0" encoding="utf-8"?>
<!-- Generator: Adobe Illustrator 17.1.0, SVG Export Plug-In . SVG Version: 6.00 Build 0)  -->
<!DOCTYPE svg PUBLIC "-//W3C//DTD SVG 1.1//EN" "http://www.w3.org/Graphics/SVG/1.1/DTD/svg11.dtd">
<svg version="1.1" id="Capa_1" xmlns="http://www.w3.org/2000/svg" xmlns:xlink="http://www.w3.org/1999/xlink" x="0px" y="0px"
	 viewBox="4292.4 3545.9 81.4 85.9" enable-background="new 4292.4 3545.9 81.4 85.9" xml:space="preserve">
<g>
	<path fill="#F48136" d="M4311.6,3614.5c-0.4-0.3-0.8-0.6-1.1-1c-0.4-0.5-0.2-1,0-1.6c0.8-2.4,1.6-4.8,2.4-7.2
		c0.3-0.9,0.6-1.9,0.9-2.8c0.3-1,0.9-1.4,2-1.4c1.1,0,2.1,0,3.3,0c0-0.2,0-0.5,0-0.7c0-5.1,0-10.1,0-15.2c0-5.8,3.8-11.2,9.3-13.1
		c6.6-2.4,13.8,0.4,17.1,6.5c1.1,2.1,1.7,4.3,1.7,6.6c0,5,0,10.1,0,15.1c0,0.2,0,0.4,0,0.7c1,0,2.1,0,3.1,0c1.3,0,1.8,0.3,2.2,1.6
		c1.1,3.2,2.2,6.5,3.2,9.7c0.5,1.4,0.2,2-1.1,2.8C4340.2,3614.5,4325.9,3614.5,4311.6,3614.5z M4343.6,3600.4c0-0.3,0-0.5,0-0.7
		c0-5,0-9.9,0-14.9c0-2.4-0.7-4.5-2.1-6.5c-3.4-4.6-9.9-5.6-14.5-2.3c-2.9,2.1-4.4,5-4.4,8.6c0,5.1,0,10.1,0,15.2c0,0.2,0,0.3,0,0.5
		C4329.6,3600.4,4336.5,3600.4,4343.6,3600.4z M4351.7,3610.9c0-0.2-0.1-0.3-0.1-0.4c-0.6-2-1.3-3.9-1.9-5.9c-0.2-0.5-0.4-0.7-1-0.7
		c-10.1,0-20.3,0-30.4,0c-1.4,0-1.4,0-1.9,1.4c-0.6,1.9-1.2,3.7-1.9,5.6C4326.9,3610.9,4339.2,3610.9,4351.7,3610.9z"/>
	<path fill="#F48136" d="M4333.5,3558.3c1,0.4,1.4,1.2,1.3,2.3c-0.1,1.5,0,3.1,0,4.7c0,1.1-0.8,1.8-1.8,1.8c-1,0-1.8-0.8-1.8-1.8
		c0-1.6,0-3.1,0-4.7c0-1.1,0.3-1.9,1.3-2.3C4332.9,3558.3,4333.2,3558.3,4333.5,3558.3z"/>
	<path fill="#F48136" d="M4311.1,3582.9c0.9,0,1.7,0,2.6,0c1,0,1.8,0.8,1.8,1.7c0,1-0.8,1.8-1.8,1.8c-1.8,0-3.5,0-5.3,0
		c-1,0-1.8-0.8-1.8-1.8c0-1,0.8-1.7,1.8-1.7C4309.4,3582.9,4310.3,3582.9,4311.1,3582.9z"/>
	<path fill="#F48136" d="M4355,3582.9c0.9,0,1.7,0,2.6,0c1,0,1.8,0.8,1.8,1.8c0,1-0.8,1.7-1.8,1.7c-1.7,0-3.5,0-5.2,0
		c-1,0-1.8-0.8-1.8-1.7c0-1,0.8-1.8,1.8-1.8C4353.3,3582.9,4354.2,3582.9,4355,3582.9z"/>
	<path fill="#F48136" d="M4352.3,3567.3c-0.2,0.4-0.4,0.9-0.7,1.2c-1.2,1.3-2.5,2.5-3.7,3.7c-0.7,0.6-1.7,0.6-2.4,0
		c-0.7-0.7-0.8-1.7-0.2-2.4c1.3-1.3,2.6-2.6,3.9-3.9c0.5-0.5,1.2-0.6,1.9-0.3C4351.8,3566,4352.2,3566.5,4352.3,3567.3z"/>
	<path fill="#F48136" d="M4313.8,3567.3c0.1-0.8,0.5-1.4,1.2-1.7c0.7-0.3,1.3-0.2,1.8,0.3c1.3,1.3,2.6,2.6,3.9,3.9
		c0.7,0.7,0.6,1.8-0.1,2.4c-0.7,0.6-1.7,0.6-2.4-0.1c-1.2-1.2-2.5-2.4-3.7-3.7C4314.2,3568.2,4314,3567.7,4313.8,3567.3z"/>
	<path fill="#F48136" d="M4333,3577.6c0,7.1,0,14,0,21.1c-2.3,0-4.6,0-7,0c0-0.2,0-0.3,0-0.5c0-4.6,0-9.1,0-13.7
		c0-3.2,2.7-6.3,5.9-6.7C4332.3,3577.7,4332.6,3577.6,4333,3577.6z"/>
</g>
</svg>
