<?xml version="1.0" encoding="utf-8"?>
<!-- Generator: Adobe Illustrator 17.1.0, SVG Export Plug-In . SVG Version: 6.00 Build 0)  -->
<!DOCTYPE svg PUBLIC "-//W3C//DTD SVG 1.1//EN" "http://www.w3.org/Graphics/SVG/1.1/DTD/svg11.dtd">
<svg version="1.1" id="Capa_1" xmlns="http://www.w3.org/2000/svg" xmlns:xlink="http://www.w3.org/1999/xlink" x="0px"
	y="0px" viewBox="4292.4 3545.9 81.4 85.9" enable-background="new 4292.4 3545.9 81.4 85.9" xml:space="preserve">
	<g>
		<path fill="#707071" d="M4307.8,3605.6c0-14.2,0-28.4,0-42.5c0-0.1,0.1-0.2,0.1-0.3c0.4-2.3,1.4-4.1,3.4-5.3c1-0.6,2.2-0.9,3.4-1.4
		c7.1,0,14.2,0,21.3,0c0.3,0.1,0.5,0.1,0.8,0.2c3.7,0.9,6.1,3.9,6.1,7.8c0,9.9,0,19.8,0,29.6c0,0.2,0,0.5,0,0.8
		c0.5-0.2,0.8-0.4,1.2-0.5c1.6-0.8,3.3-1,5.1-0.6c4.9,1,8.7,5.4,9,10.4c0.1,1.2-0.1,2.4,0,3.5c0.1,1.9,0.9,3.6,1.6,5.3
		c0.5,1.2,0.1,2-1,2.5c-4.2,1.9-8.4,3.8-12.6,5.7c-1.2,0.5-2,0.2-2.6-1c-0.5-0.9-0.9-1.8-1.5-2.7c-0.9-1.3-1.9-2.4-3.5-3
		c-1-0.4-1.9-0.9-2.9-1.3c-0.4-0.2-0.9-0.3-1.3-0.3c-6.2,0-12.4,0-18.5,0c-3.8,0-6.9-2.5-7.7-6.2
		C4308,3606.2,4307.9,3605.9,4307.8,3605.6z M4339.3,3591c0,0,0.1,0,0.1,0c0-0.2,0-0.4,0-0.5c0-8.7,0-17.4,0-26.1
		c0-2.9-1.8-4.7-4.8-4.7c-6.2,0-12.4,0-18.7,0c-2.9,0-4.8,1.8-4.8,4.8c0,13.4,0,26.7,0,40.1c0,3,1.8,4.8,4.8,4.8c4.4,0,8.8,0,13.3,0
		c0.2,0,0.4,0,0.7,0c-0.8-1.7-0.9-3.3-0.1-4.8c0.8-1.6,2.3-2.3,4.1-2.3c-0.3-0.7-0.7-1.3-0.9-2c-0.2-0.5-0.4-0.6-1-0.6
		c-5.9,0-11.8,0-17.7,0c-0.2,0-0.5,0-0.7,0c0-12.3,0-24.6,0-36.8c7.7,0,15.3,0,22.9,0c0,0.3,0,0.6,0,0.8c0,7.6,0,15.3,0,22.9
		c0,0.3,0.1,0.6,0.3,0.8c0.5,0.8,1.1,1.5,1.6,2.3C4338.9,3589.9,4339.1,3590.5,4339.3,3591z M4317.1,3566c0,10,0,19.9,0,29.9
		c4.7,0,9.3,0,14,0c-0.2-0.3-0.3-0.6-0.4-1c-0.5-1.2-1.1-2.4-1.4-3.7c-0.5-2.3,1-4.8,3.3-5.3c0.5-0.1,0.6-0.3,0.6-0.8
		c0-6.2,0-12.4,0-18.6c0-0.2,0-0.4,0-0.6C4327.8,3566,4322.5,3566,4317.1,3566z M4355.9,3612.6c-0.1-0.4-0.3-0.8-0.4-1.2
		c-0.6-1.8-1-3.6-0.8-5.5c0.3-2.8-0.5-5.3-2.6-7.2c-1.9-1.8-4.4-2.7-7.1-1.3c-1.1,0.6-2.2,1-3.3,1.5c-1.4,0.6-2.2,0.3-2.8-1
		c-1.1-2.4-2.2-4.8-3.4-7.2c-0.2-0.5-0.6-0.9-1-1.2c-0.8-0.5-1.6-0.1-1.6,0.8c0,0.4,0.1,0.8,0.2,1.2c0.1,0.4,0.3,0.7,0.5,1.1
		c1.8,3.8,3.5,7.6,5.3,11.4c0.1,0.2,0.2,0.5,0.3,0.8c0.2,0.7,0,1.2-0.5,1.7c-0.5,0.4-1.1,0.6-1.7,0.4c-0.9-0.4-1.8-0.8-2.7-1.2
		c-0.9-0.4-1.5,0.1-1.4,1c0.1,0.8,0.5,1.4,1.3,1.8c2,0.9,3.9,1.9,5.9,2.7c2.1,0.8,3.5,2.3,4.8,4c0.4,0.6,0.8,1.3,1.3,2
		C4349.4,3615.6,4352.6,3614.1,4355.9,3612.6z" />
		<path fill="#707071" d="M4322.1,3606.2c0-1.1,0-2.2,0-3.3c2.2,0,4.4,0,6.6,0c0,1.1,0,2.2,0,3.3
		C4326.5,3606.2,4324.3,3606.2,4322.1,3606.2z" />
		<path fill="#707071" d="M4319.9,3582.9c0.8-0.3,1.5-0.6,2.2-0.9c1,1.6,2.5,1.8,4.1,1.4c0.2,0,0.4-0.1,0.5-0.2
		c0.2-0.3,0.5-0.6,0.5-1c0-0.3-0.3-0.7-0.6-0.8c-0.6-0.2-1.3-0.3-2-0.5c-0.7-0.2-1.5-0.3-2.2-0.5c-1.1-0.4-1.8-1.2-1.9-2.4
		c-0.1-1.3,0.3-2.3,1.5-3c0.6-0.3,1.2-0.5,1.9-0.8c0-0.3,0-0.7,0-1.2c0.8,0,1.6,0,2.4,0c0,0.4,0,0.9,0,1.3c1.4,0.3,2.6,1,3.2,2.4
		c-0.6,0.3-1.2,0.6-1.8,0.8c-0.1,0-0.4,0-0.5-0.1c-1-1-2.2-1.1-3.5-0.7c-0.4,0.1-0.8,0.4-0.8,0.9c0,0.5,0.4,0.7,0.8,0.8
		c0.8,0.2,1.5,0.3,2.3,0.4c1,0.2,2.1,0.4,2.8,1.1c1.5,1.4,1.2,4.1-0.7,5.2c-0.4,0.2-0.8,0.4-1.3,0.5c-0.5,0.1-0.6,0.3-0.6,0.7
		c0,0.3,0,0.6,0,0.9c-0.8,0-1.6,0-2.4,0c0-0.5,0-0.9,0-1.4C4322.1,3585.6,4320.7,3584.8,4319.9,3582.9z" />
	</g>
</svg>